HIERARCHY
ROOT Hips
{
	OFFSET 55.310501 45.591206 43.872097
	CHANNELS 6 Xposition Yposition Zposition Zrotation Xrotation Yrotation
	JOINT Chest
	{
		OFFSET -0.153500 1.163101 7.852402
		CHANNELS 6 Xposition Yposition Zposition Zrotation Xrotation Yrotation
		JOINT Chest2
		{
			OFFSET 0.000000 0.000000 3.343300
			CHANNELS 6 Xposition Yposition Zposition Zrotation Xrotation Yrotation
			JOINT Neck
			{
				OFFSET 0.000000 0.000000 7.785500
				CHANNELS 6 Xposition Yposition Zposition Zrotation Xrotation Yrotation
				JOINT Head
				{
					OFFSET 0.000000 0.000000 2.173901
					CHANNELS 6 Xposition Yposition Zposition Zrotation Xrotation Yrotation
					End Site
					{
						OFFSET 0.000000 0.000000 10.528198
					}
				}
			}
			JOINT LeftCollar
			{
				OFFSET 2.676300 -1.652401 4.938301
				CHANNELS 6 Xposition Yposition Zposition Zrotation Xrotation Yrotation
				JOINT LeftShoulder
				{
					OFFSET 4.299000 0.000000 0.000000
					CHANNELS 6 Xposition Yposition Zposition Zrotation Xrotation Yrotation
					JOINT LeftElbow
					{
						OFFSET 0.000000 0.000000 -10.245102
						CHANNELS 6 Xposition Yposition Zposition Zrotation Xrotation Yrotation
						JOINT LeftWrist
						{
							OFFSET 0.000000 0.000000 -12.703300
							CHANNELS 6 Xposition Yposition Zposition Zrotation Xrotation Yrotation
							End Site
							{
								OFFSET 0.000000 0.000000 -2.173901
							}
						}
					}
				}
			}
			JOINT RightCollar
			{
				OFFSET -2.534599 -1.686401 5.195000
				CHANNELS 6 Xposition Yposition Zposition Zrotation Xrotation Yrotation
				JOINT RightShoulder
				{
					OFFSET -4.144100 0.000000 0.000000
					CHANNELS 6 Xposition Yposition Zposition Zrotation Xrotation Yrotation
					JOINT RightElbow
					{
						OFFSET 0.000000 0.000000 -10.116501
						CHANNELS 6 Xposition Yposition Zposition Zrotation Xrotation Yrotation
						JOINT RightWrist
						{
							OFFSET 0.000000 0.000000 -12.937801
							CHANNELS 6 Xposition Yposition Zposition Zrotation Xrotation Yrotation
							End Site
							{
								OFFSET 0.000000 0.000000 -2.173901
							}
						}
					}
				}
			}
		}
	}
	JOINT LeftHip
	{
		OFFSET 2.175598 0.064499 -2.662899
		CHANNELS 6 Xposition Yposition Zposition Zrotation Xrotation Yrotation
		JOINT LeftKnee
		{
			OFFSET 0.000000 -0.000004 -18.585800
			CHANNELS 6 Xposition Yposition Zposition Zrotation Xrotation Yrotation
			JOINT LeftAnkle
			{
				OFFSET 0.000000 0.000000 -18.979500
				CHANNELS 6 Xposition Yposition Zposition Zrotation Xrotation Yrotation
				End Site
				{
					OFFSET 0.000000 -9.264000 0.000000
				}
			}
		}
	}
	JOINT RightHip
	{
		OFFSET -2.092400 -0.058102 -2.581200
		CHANNELS 6 Xposition Yposition Zposition Zrotation Xrotation Yrotation
		JOINT RightKnee
		{
			OFFSET 0.000000 -0.000004 -18.665001
			CHANNELS 6 Xposition Yposition Zposition Zrotation Xrotation Yrotation
			JOINT RightAnkle
			{
				OFFSET 0.000000 0.000000 -18.566601
				CHANNELS 6 Xposition Yposition Zposition Zrotation Xrotation Yrotation
				End Site
				{
					OFFSET 0.000000 -8.497601 0.000000
				}
			}
		}
	}
}
MOTION
Frames: 9
Frame Time: 0.041667
24.910803 66.102196 40.822197 684.181197 26.590746 -23.264541 -0.153506 1.163090 7.852412 43.045177 -7.555834 -7.054937 0.000001 0.000002 3.343303 -21.450129 -10.983628 -2.068398 -0.000002 -0.000006 7.785500 51.918399 -8.359138 1.025683 0.000002 0.000005 2.173909 11.479184 -5.120202 12.903201 2.676294 -1.652407 4.938296 0.051001 10.712207 5.282199 4.299001 0.000009 -0.000007 13.726370 8.431900 -106.543240 -0.000008 0.000008 -10.245100 9.848692 725.278937 -2.303922 0.000004 0.000013 -12.703314 925.866785 -134.477368 433.370886 -2.534599 -1.686403 5.194994 -2.754829 4.771992 3.039845 -4.144100 -0.000004 0.000001 58.258604 -19.911786 157.128078 -0.000002 -0.000008 -10.116496 -85.061701 -10.308378 -23.882938 0.000002 -0.000006 -12.937803 -358.823851 -369.263058 20.362168 2.175584 0.064492 -2.662888 -269.184176 -38.484168 82.430650 -0.000003 -0.000005 -18.585815 -43.917000 -246.289409 60.725190 -0.000001 -0.000009 -18.979506 299.166056 29.804893 7.127150 -2.092402 -0.058102 -2.581187 241.291186 -22.655708 -72.974554 0.000010 0.000000 -18.665005 -923.093837 25.697050 -74.134559 0.000002 -0.000007 -18.566601 687.907912 -8.342507 -13.606200
24.898294 66.104103 40.825291 684.222615 26.607692 -23.297424 -0.153505 1.163099 7.852404 43.013509 -7.645731 -7.062233 0.000010 0.000003 3.343295 -21.433738 -10.951903 -2.065144 0.000006 0.000005 7.785506 52.014588 -8.420816 0.872608 0.000002 0.000006 2.173902 11.415964 -5.131403 12.977051 2.676305 -1.652391 4.938303 -0.081954 10.840053 5.240989 4.299002 0.000003 0.000000 13.814775 8.390758 -106.439332 -0.000007 0.000008 -10.245098 5.136939 725.497066 -2.057595 0.000002 0.000011 -12.703302 930.826376 -134.605844 433.568141 -2.534591 -1.686386 5.195003 -2.876355 4.785672 2.976572 -4.144100 0.000009 -0.000003 58.511191 -19.797814 157.234643 0.000013 -0.000002 -10.116499 -85.199834 -10.374122 -23.697691 0.000013 -0.000003 -12.937806 -358.718503 -369.270489 20.202002 2.175592 0.064496 -2.662895 -269.217234 -38.338330 82.394389 -0.000003 -0.000005 -18.585814 -44.003449 -246.354514 60.698245 -0.000008 0.000002 -18.979502 299.162887 29.789754 7.156762 -2.092398 -0.058109 -2.581194 241.278891 -22.823772 -73.007551 0.000001 0.000005 -18.665001 -923.767895 26.921225 -74.110408 0.000005 -0.000004 -18.566603 688.956974 -8.075371 -12.839134
24.887606 66.107300 40.827793 684.255564 26.626379 -23.335480 -0.153507 1.163099 7.852396 42.990932 -7.720433 -7.067908 0.000002 0.000010 3.343306 -21.399915 -10.928132 -2.060439 0.000000 -0.000002 7.785504 52.074325 -8.456621 0.751945 0.000007 0.000003 2.173913 11.352266 -5.097303 13.010806 2.676299 -1.652405 4.938305 -0.177380 10.914862 5.249276 4.299000 0.000013 0.000000 13.872294 8.433325 -106.402579 -0.000009 0.000005 -10.245091 5.209527 725.542309 -2.091633 -0.000006 0.000008 -12.703314 930.946806 -134.633738 433.579097 -2.534593 -1.686403 5.195002 -2.932893 4.784723 3.088398 -4.144106 0.000005 -0.000003 58.600919 -19.856004 157.177761 -0.000001 0.000005 -10.116498 -85.237919 -10.588500 -23.605986 0.000004 -0.000001 -12.937805 -358.734403 -369.227541 20.016192 2.175583 0.064501 -2.662900 -269.291164 -38.270721 82.350566 -0.000005 -0.000015 -18.585814 -44.008360 -246.482621 60.682679 -0.000001 -0.000008 -18.979506 299.240942 29.779686 7.134713 -2.092406 -0.058100 -2.581200 241.237637 -22.922164 -73.036169 0.000010 0.000008 -18.665001 -924.049517 27.391753 -74.115817 -0.000002 -0.000006 -18.566601 689.350885 -8.015570 -12.653989
24.878601 66.112198 40.829292 684.279715 26.648914 -23.378049 -0.153498 1.163088 7.852417 42.977586 -7.790714 -7.077755 0.000002 -0.000007 3.343299 -21.345895 -10.902047 -2.053914 -0.000007 0.000004 7.785500 52.089806 -8.470881 0.682566 0.000010 -0.000001 2.173912 11.298092 -5.063651 13.009786 2.676293 -1.652387 4.938298 -0.190995 10.912412 5.299413 4.298987 0.000010 -0.000004 13.836237 8.543470 -106.437918 0.000001 0.000006 -10.245100 5.279927 725.614162 -2.128744 -0.000006 -0.000002 -12.703308 931.081334 -134.633219 433.613193 -2.534594 -1.686394 5.194997 -3.011627 4.755406 3.291058 -4.144106 -0.000005 -0.000003 58.588236 -19.977427 157.044258 0.000003 -0.000006 -10.116488 -85.264373 -10.774039 -23.450543 -0.000003 -0.000008 -12.937801 -358.784619 -369.194865 19.713085 2.175593 0.064489 -2.662882 -269.386486 -38.279566 82.315275 -0.000003 -0.000012 -18.585814 -43.964654 -246.626847 60.699843 -0.000007 -0.000000 -18.979502 299.353640 29.770746 7.081553 -2.092397 -0.058105 -2.581185 241.162450 -22.929987 -73.054221 0.000011 0.000009 -18.665003 -924.034873 27.338493 -74.136615 -0.000002 -0.000005 -18.566601 689.325258 -8.081094 -12.810896
24.871096 66.118599 40.830391 684.294468 26.676660 -23.420929 -0.153506 1.163105 7.852405 42.974072 -7.859521 -7.093630 0.000002 0.000008 3.343300 -21.274760 -10.874997 -2.044348 0.000004 -0.000002 7.785500 52.077040 -8.451369 0.656832 0.000005 -0.000001 2.173908 11.288654 -5.035935 12.992668 2.676293 -1.652395 4.938298 -0.311814 10.965538 5.391782 4.299004 0.000006 0.000000 13.887033 8.531038 -106.465697 -0.000010 0.000010 -10.245095 5.302419 725.672192 -2.156883 0.000004 0.000002 -12.703310 931.193239 -134.623998 433.655322 -2.534600 -1.686393 5.194995 -3.161259 4.701901 3.489642 -4.144102 0.000011 -0.000006 58.594813 -20.062246 156.911247 -0.000005 -0.000000 -10.116495 -85.204342 -10.964299 -23.298928 0.000002 -0.000006 -12.937801 -358.868958 -369.150059 19.460747 2.175598 0.064493 -2.662893 -269.487955 -38.327067 82.291260 -0.000001 -0.000006 -18.585814 -43.860886 -246.813421 60.697617 0.000002 -0.000004 -18.979498 299.540869 29.770800 6.961786 -2.092396 -0.058107 -2.581193 241.061855 -22.854600 -73.056298 0.000013 0.000006 -18.665010 -924.354417 28.080390 -74.060465 -0.000001 -0.000001 -18.566601 689.963198 -7.829789 -12.138196
24.864595 66.127090 40.831493 684.302337 26.709366 -23.461223 -0.153506 1.163099 7.852402 42.977903 -7.929982 -7.118273 0.000009 0.000008 3.343303 -21.187752 -10.847113 -2.031016 0.000003 -0.000009 7.785504 52.017160 -8.401758 0.678827 -0.000001 0.000005 2.173904 11.299366 -5.040612 12.959786 2.676301 -1.652405 4.938301 -0.480437 11.058119 5.499333 4.298995 0.000017 -0.000007 14.004745 8.580715 -106.467814 -0.000006 -0.000001 -10.245098 5.443421 725.737051 -2.187442 -0.000006 0.000004 -12.703304 931.262962 -134.599300 433.689336 -2.534598 -1.686403 5.194998 -3.240044 4.684008 3.658345 -4.144098 0.000007 0.000000 58.462116 -20.149097 156.828984 0.000008 -0.000002 -10.116497 -85.102067 -11.156277 -23.169122 -0.000002 -0.000006 -12.937801 -359.068290 -369.129350 19.160125 2.175599 0.064499 -2.662904 -269.608549 -38.411748 82.263208 -0.000002 -0.000007 -18.585804 -43.736437 -247.026140 60.717424 -0.000007 -0.000003 -18.979504 299.758588 29.772774 6.819012 -2.092401 -0.058111 -2.581195 240.936016 -22.718669 -73.044966 0.000006 -0.000006 -18.665007 -925.151199 29.836783 -73.866413 -0.000000 -0.000009 -18.566599 691.450430 -7.223353 -10.470139
24.856697 66.138702 40.834488 684.286600 26.771705 -23.455761 -0.153504 1.163102 7.852412 43.010367 -8.040698 -7.171336 -0.000007 0.000002 3.343297 -21.087220 -10.816682 -2.015228 0.000003 0.000004 7.785508 51.877828 -8.331857 0.764100 0.000006 0.000000 2.173897 11.387464 -5.070400 12.901214 2.676303 -1.652408 4.938306 -0.629940 11.147392 5.597436 4.299000 0.000017 0.000002 14.116535 8.698951 -106.449967 -0.000005 -0.000008 -10.245097 10.533817 725.607715 -2.528920 -0.000006 0.000000 -12.703301 926.304026 -134.501424 433.493392 -2.534592 -1.686399 5.195003 -3.322404 4.664588 3.828552 -4.144100 0.000008 -0.000001 58.379102 -20.270183 156.860895 0.000001 -0.000005 -10.116503 -85.020760 -11.170735 -23.115993 0.000001 -0.000011 -12.937803 -359.150826 -369.185904 18.930071 2.175595 0.064495 -2.662889 -269.669474 -38.547484 82.264164 -0.000003 -0.000005 -18.585808 -43.574746 -247.229188 60.710539 -0.000011 -0.000003 -18.979504 299.974887 29.778918 6.666470 -2.092395 -0.058109 -2.581189 240.851759 -22.557642 -73.050984 0.000008 0.000003 -18.665012 -926.610456 32.830872 -73.480070 0.000002 -0.000009 -18.566599 693.934434 -6.212484 -7.719942
24.847393 66.152992 40.838997 684.260044 26.854943 -23.417013 -0.153499 1.163104 7.852407 43.057366 -8.184665 -7.254454 0.000006 0.000009 3.343307 -20.976331 -10.783643 -1.998292 -0.000002 -0.000002 7.785503 51.779261 -8.234915 0.857318 0.000007 0.000000 2.173917 11.473055 -5.132582 12.892775 2.676290 -1.652407 4.938300 -0.845392 11.269377 5.699901 4.299004 0.000010 -0.000003 14.298578 8.739837 -106.403330 0.000002 0.000006 -10.245094 10.801938 725.643942 -2.551135 -0.000008 0.000006 -12.703313 926.256488 -134.516341 433.493365 -2.534596 -1.686403 5.195002 -3.494291 4.619957 3.954542 -4.144096 0.000002 -0.000014 58.413328 -20.314625 157.009438 -0.000010 -0.000001 -10.116492 -85.086323 -10.985179 -23.129155 0.000002 -0.000002 -12.937809 -359.091404 -369.258632 18.880820 2.175587 0.064499 -2.662903 -269.689009 -38.699080 82.288357 -0.000007 -0.000008 -18.585808 -43.404015 -247.432154 60.677877 -0.000001 -0.000006 -18.979507 300.195775 29.785690 6.508187 -2.092394 -0.058104 -2.581201 240.808264 -22.402010 -73.078537 0.000005 -0.000001 -18.665007 -928.713935 36.827796 -72.811087 0.000001 -0.000009 -18.566603 697.188554 -4.890782 -4.163029
24.835602 66.170898 40.845993 684.246001 26.951593 -23.354293 -0.153503 1.163103 7.852409 43.098900 -8.343573 -7.361196 0.000003 0.000008 3.343305 -20.886725 -10.767061 -1.985276 -0.000007 0.000008 7.785505 51.762927 -8.144955 0.926844 -0.000003 0.000002 2.173908 11.520312 -5.196034 12.913904 2.676291 -1.652393 4.938303 -1.093576 11.396769 5.781969 4.299003 0.000010 -0.000005 14.566799 8.730694 -106.308247 -0.000010 0.000011 -10.245104 11.080981 725.618097 -2.554404 0.000004 -0.000004 -12.703307 926.150811 -134.574411 433.474923 -2.534602 -1.686398 5.194998 -3.675456 4.536930 4.174613 -4.144100 0.000006 -0.000010 58.533902 -20.428001 157.099023 -0.000000 -0.000015 -10.116494 -85.103221 -10.781764 -23.113956 0.000004 -0.000004 -12.937808 -359.052581 -369.338354 18.859310 2.175589 0.064495 -2.662891 -269.662890 -38.841005 82.335492 -0.000005 -0.000008 -18.585812 -43.214306 -247.619055 60.582077 0.000003 -0.000006 -18.979509 300.396993 29.793128 6.366836 -2.092402 -0.058105 -2.581190 240.777173 -22.233231 -73.130050 0.000004 0.000000 -18.665003 -931.103300 40.992343 -71.879074 -0.000003 -0.000010 -18.566603 700.514255 -3.531195 -0.505189
